<?xml version="1.0"?>
<svg xmlns="http://www.w3.org/2000/svg" xmlns:xlink="http://www.w3.org/1999/xlink" xmlns:svgjs="http://svgjs.com/svgjs" version="1.1" width="512" height="512" x="0" y="0" viewBox="0 0 24 24" style="enable-background:new 0 0 512 512" xml:space="preserve"><g><path xmlns="http://www.w3.org/2000/svg" d="M5,22a2,2,0,0,0,2-2V14a2,2,0,0,0-2-2V11a7,7,0,0,1,14,0v1a2,2,0,0,0-2,2v6H14a1,1,0,0,0,0,2h5a5,5,0,0,0,2-9.576V11A9,9,0,0,0,3,11v1.424A5,5,0,0,0,5,22Z" fill="#ffffff" data-original="#000000" style=""/></g></svg>
